<svg width="55" height="17" viewBox="0 0 55 17" fill="none" xmlns="http://www.w3.org/2000/svg">
<path d="M8.32325 5.12913C8.14472 4.95061 7.85528 4.95061 7.67675 5.12913L4.76751 8.03837C4.58899 8.2169 4.58899 8.50634 4.76751 8.68487C4.94604 8.86339 5.23548 8.86339 5.41401 8.68487L8 6.09888L10.586 8.68487C10.7645 8.8634 11.054 8.8634 11.2325 8.68487C11.411 8.50634 11.411 8.2169 11.2325 8.03837L8.32325 5.12913ZM7.54286 11.5476C7.54286 11.8001 7.74753 12.0048 8 12.0048C8.25247 12.0048 8.45714 11.8001 8.45714 11.5476L7.54286 11.5476ZM7.54286 5.45238L7.54286 11.5476L8.45714 11.5476L8.45714 5.45238L7.54286 5.45238Z" fill="#00C287"/>
<rect x="0.380952" y="0.880952" width="15.2381" height="15.2381" rx="7.61905" stroke="#00C287" stroke-width="0.761905"/>
<path d="M25.6335 14.1392C27.831 14.1541 29.3075 12.6428 29.3026 10.6293C29.3075 8.70526 27.9354 7.31321 26.1506 7.31321C25.0568 7.31321 24.0923 7.84517 23.6051 8.72017H23.5355C23.5405 6.57741 24.326 5.27486 25.7379 5.27486C26.6129 5.27486 27.2045 5.78196 27.3935 6.5625H29.2081C28.9893 4.9169 27.6619 3.67898 25.7379 3.67898C23.2919 3.67898 21.7457 5.71733 21.7457 9.19744C21.7408 12.9311 23.6797 14.1293 25.6335 14.1392ZM25.6236 12.6477C24.5348 12.6477 23.7393 11.7479 23.7344 10.6839C23.7443 9.61506 24.5696 8.72017 25.6484 8.72017C26.7273 8.72017 27.5178 9.57528 27.5128 10.669C27.5178 11.7827 26.7024 12.6477 25.6236 12.6477ZM31.674 14.1094C32.2607 14.1094 32.7628 13.6222 32.7678 13.0156C32.7628 12.419 32.2607 11.9318 31.674 11.9318C31.0675 11.9318 30.5753 12.419 30.5803 13.0156C30.5753 13.6222 31.0675 14.1094 31.674 14.1094ZM34.606 14H41.5861V12.4588H37.1515V12.3892L38.9064 10.6044C40.8851 8.70526 41.432 7.78054 41.432 6.6321C41.432 4.92685 40.0449 3.67898 37.9966 3.67898C35.9782 3.67898 34.5463 4.93182 34.5463 6.86577H36.3013C36.3013 5.8267 36.9576 5.17543 37.9718 5.17543C38.9412 5.17543 39.6621 5.76705 39.6621 6.72656C39.6621 7.5767 39.1451 8.18324 38.1408 9.20241L34.606 12.6676V14ZM48.7452 12.0909C48.7502 13.2741 49.5009 14.2834 50.8979 14.2834C52.29 14.2834 53.0556 13.2741 53.0506 12.0909V11.554C53.0556 10.3608 52.3098 9.36151 50.8979 9.36151C49.5208 9.36151 48.7502 10.3707 48.7452 11.554V12.0909ZM43.5698 6.2642C43.5748 7.44744 44.3255 8.44673 45.7275 8.44673C47.1145 8.44673 47.8801 7.45739 47.8752 6.2642V5.72727C47.8801 4.53409 47.1344 3.5348 45.7275 3.5348C44.3553 3.5348 43.5748 4.53409 43.5698 5.72727V6.2642ZM44.0172 14H45.2651L52.2651 3.81818H51.0172L44.0172 14ZM50.0428 11.554C50.0478 11.027 50.2715 10.495 50.8979 10.495C51.5542 10.495 51.748 11.027 51.7431 11.554V12.0909C51.748 12.6179 51.5343 13.1399 50.8979 13.1399C50.2615 13.1399 50.0478 12.6129 50.0428 12.0909V11.554ZM44.8773 5.72727C44.8823 5.20526 45.0961 4.66832 45.7275 4.66832C46.3837 4.66832 46.5726 5.20028 46.5676 5.72727V6.2642C46.5726 6.79119 46.3638 7.31321 45.7275 7.31321C45.0911 7.31321 44.8823 6.79119 44.8773 6.2642V5.72727Z" fill="#00C287"/>
</svg>
