<svg width="22" height="21" viewBox="0 0 22 21" fill="none" xmlns="http://www.w3.org/2000/svg">
<path d="M11 21C17.0751 21 22 16.299 22 10.5C22 4.70101 17.0751 0 11 0C4.92487 0 0 4.70101 0 10.5C0 16.299 4.92487 21 11 21Z" fill="#8AC9FE"/>
<path d="M15.7656 1.03391C17.0566 2.75459 17.8168 4.86288 17.8168 7.14084C17.8168 12.9398 12.892 17.6408 6.81685 17.6408C5.10953 17.6408 3.49309 17.2695 2.05127 16.6069C4.04691 19.2666 7.31125 21 11 21C17.0751 21 22 16.299 22 10.5C22 6.3307 19.4543 2.72904 15.7656 1.03391Z" fill="#60B7FF"/>
<path d="M10.9998 19.643C16.2898 19.643 20.5781 15.5495 20.5781 10.5C20.5781 5.45045 16.2898 1.35699 10.9998 1.35699C5.70977 1.35699 1.42139 5.45045 1.42139 10.5C1.42139 15.5495 5.70977 19.643 10.9998 19.643Z" fill="#EAF6FF"/>
<path d="M17.1259 3.47159C17.5723 4.61387 17.8169 5.85 17.8169 7.14085C17.8169 12.9398 12.892 17.6408 6.8169 17.6408C6.12531 17.6408 5.4489 17.5793 4.79272 17.4628C6.4646 18.8221 8.63172 19.643 11 19.643C16.29 19.643 20.5784 15.5495 20.5784 10.5C20.5784 7.67454 19.2354 5.14872 17.1259 3.47159Z" fill="#D8ECFE"/>
<path d="M10.8709 5.01387L7.78157 9.76951C7.74428 9.82693 7.76245 9.90232 7.82231 9.93837L10.9738 11.8383C11.0163 11.864 11.0706 11.8636 11.1128 11.8375L14.1788 9.93919C14.2379 9.90261 14.2553 9.82751 14.2178 9.77054L11.0897 5.01326C11.039 4.93619 10.9212 4.93652 10.8709 5.01387Z" fill="#60B7FF"/>
<path d="M11.0875 13.4836L13.7954 11.876C13.9128 11.8063 14.0472 11.9379 13.9712 12.0481L11.2428 16.0041C11.1931 16.0762 11.083 16.0783 11.0303 16.0082L8.07801 12.0759C7.99607 11.9667 8.13043 11.829 8.25027 11.8993L10.9519 13.4839C10.9936 13.5084 11.046 13.5083 11.0875 13.4836Z" fill="#60B7FF"/>
</svg>
