<svg width="32" height="34" viewBox="0 0 32 34" fill="none" xmlns="http://www.w3.org/2000/svg">
<g filter="url(#filter0_b_646_3)">
<rect y="0.5" width="32" height="33" rx="6.4" fill="#0A0930" fill-opacity="0.3"/>
<g clip-path="url(#clip0_646_3)">
<path d="M16.5677 10.8303C16.2626 10.8303 16.0402 10.5439 16.119 10.2525L16.5391 8.70041C16.6053 8.45552 16.8598 8.31018 17.1074 8.37565C17.355 8.44117 17.502 8.69289 17.4357 8.93772L17.0157 10.4898C16.9602 10.695 16.7726 10.8303 16.5677 10.8303Z" fill="#F5AC6E"/>
<path d="M19.706 11.6617C19.4 11.6617 19.1785 11.3745 19.2574 11.0836L19.678 9.53215C19.7444 9.28726 19.9989 9.1421 20.2465 9.20768C20.4941 9.27332 20.6409 9.52503 20.5746 9.76992L20.154 11.3214C20.0984 11.5264 19.9109 11.6617 19.706 11.6617Z" fill="#F5AC6E"/>
<path d="M12.7235 25.0186C12.4176 25.0186 12.1961 24.7314 12.275 24.4406L12.693 22.8988C12.7425 22.6979 12.9255 22.5486 13.1439 22.5486C13.3982 22.5486 13.608 22.7518 13.608 23.008C13.608 23.0937 13.6275 22.9962 13.1715 24.6783C13.1159 24.8833 12.9284 25.0186 12.7235 25.0186Z" fill="#F5AC6E"/>
<path d="M15.8618 25.85C15.5559 25.85 15.3344 25.5628 15.4133 25.272L15.8339 23.72C15.9002 23.4752 16.1546 23.3298 16.4023 23.3955C16.6499 23.4611 16.7968 23.7128 16.7304 23.9576L16.3098 25.5097C16.2543 25.7148 16.0667 25.85 15.8618 25.85Z" fill="#F5AC6E"/>
<path d="M10.1185 22.3033C9.86077 22.2385 9.7082 21.99 9.77721 21.748L10.1456 20.457C10.2014 20.2612 10.3889 20.1197 10.6048 20.121C11.2216 20.1248 11.7878 19.7397 11.955 19.1542L13.5949 13.4092C13.7626 12.8152 13.4715 12.2242 12.9457 11.941C12.7565 11.8391 12.6652 11.6297 12.7217 11.4319L13.0902 10.1406C13.1592 9.89862 13.4237 9.75499 13.6814 9.81978L19.6225 11.3142C22.828 12.1208 23.2355 16.8103 20.0337 18.1367C22.6939 19.9047 21.2968 25.1139 16.0016 23.7836C15.9932 23.7836 10.1279 22.3056 10.1185 22.3033ZM19.8314 15.2107C20.0782 14.3434 19.5282 13.4622 18.6148 13.2318L16.8358 12.7845C16.5781 12.7197 16.3133 12.8633 16.2443 13.1052L15.6037 15.3502C15.5347 15.5921 15.6876 15.8408 15.9453 15.9056L17.7242 16.3528C18.6419 16.5841 19.5857 16.0723 19.8314 15.2107ZM18.6075 20.5951C18.8533 19.7329 18.3086 18.8475 17.3903 18.6162L15.2618 18.0811C15.0041 18.0163 14.7392 18.1599 14.6702 18.4018L13.9046 21.0843C16.6917 21.7856 16.6413 21.7928 16.9459 21.7928C17.7061 21.7928 18.401 21.3167 18.6075 20.5951Z" fill="#F5AC6E"/>
</g>
</g>
<defs>
<filter id="filter0_b_646_3" x="-12.8" y="-12.3" width="57.6" height="58.6" filterUnits="userSpaceOnUse" color-interpolation-filters="sRGB">
<feFlood flood-opacity="0" result="BackgroundImageFix"/>
<feGaussianBlur in="BackgroundImage" stdDeviation="6.4"/>
<feComposite in2="SourceAlpha" operator="in" result="effect1_backgroundBlur_646_3"/>
<feBlend mode="normal" in="SourceGraphic" in2="effect1_backgroundBlur_646_3" result="shape"/>
</filter>
<clipPath id="clip0_646_3">
<rect width="13" height="18" fill="white" transform="translate(9.5 8)"/>
</clipPath>
</defs>
</svg>
