<svg width="55" height="17" viewBox="0 0 55 17" fill="none" xmlns="http://www.w3.org/2000/svg">
<path d="M8.32325 11.8709C8.14472 12.0494 7.85528 12.0494 7.67675 11.8709L4.76751 8.96163C4.58899 8.7831 4.58899 8.49366 4.76751 8.31513C4.94604 8.13661 5.23548 8.13661 5.41401 8.31513L8 10.9011L10.586 8.31513C10.7645 8.1366 11.054 8.1366 11.2325 8.31513C11.411 8.49366 11.411 8.7831 11.2325 8.96163L8.32325 11.8709ZM7.54286 5.45238C7.54286 5.19991 7.74753 4.99524 8 4.99524C8.25247 4.99524 8.45714 5.19991 8.45714 5.45238L7.54286 5.45238ZM7.54286 11.5476L7.54286 5.45238L8.45714 5.45238L8.45714 11.5476L7.54286 11.5476Z" fill="#E72D04"/>
<rect x="0.380952" y="-0.380952" width="15.2381" height="15.2381" rx="7.61905" transform="matrix(1 0 0 -1 0 15.7381)" stroke="#E72D04" stroke-width="0.761905"/>
<path d="M25.5589 14.1392C27.7365 14.1392 29.3224 12.8913 29.3175 11.1712C29.3224 9.89844 28.527 8.98366 27.1001 8.77983V8.70028C28.2038 8.46165 28.9446 7.64134 28.9396 6.49787C28.9446 4.94673 27.6222 3.67898 25.5888 3.67898C23.6101 3.67898 22.0788 4.85724 22.0391 6.5625H23.8139C23.8438 5.70739 24.6392 5.17543 25.5788 5.17543C26.5284 5.17543 27.1598 5.75213 27.1548 6.60724C27.1598 7.49716 26.424 8.08878 25.37 8.08878H24.4702V9.51065H25.37C26.6577 9.51065 27.4233 10.157 27.4183 11.0767C27.4233 11.9766 26.6428 12.593 25.554 12.593C24.5298 12.593 23.7393 12.0611 23.6946 11.2308H21.8253C21.875 12.951 23.4112 14.1392 25.5589 14.1392ZM31.8517 14.1094C32.4384 14.1094 32.9405 13.6222 32.9455 13.0156C32.9405 12.419 32.4384 11.9318 31.8517 11.9318C31.2452 11.9318 30.753 12.419 30.758 13.0156C30.753 13.6222 31.2452 14.1094 31.8517 14.1094ZM38.0202 14.1392C40.2227 14.1392 41.7987 12.9261 41.8036 11.2706C41.7987 9.99787 40.859 8.93395 39.6758 8.73509V8.66548C40.7049 8.43679 41.4208 7.51207 41.4258 6.40838C41.4208 4.84233 39.979 3.67898 38.0202 3.67898C36.0465 3.67898 34.6048 4.83736 34.6097 6.40838C34.6048 7.51207 35.3107 8.43679 36.3597 8.66548V8.73509C35.1566 8.93395 34.2269 9.99787 34.2319 11.2706C34.2269 12.9261 35.7979 14.1392 38.0202 14.1392ZM38.0202 12.7173C36.8668 12.7173 36.1211 12.081 36.131 11.1413C36.1211 10.1669 36.9215 9.47585 38.0202 9.47585C39.104 9.47585 39.8995 10.1719 39.9094 11.1413C39.8995 12.081 39.1587 12.7173 38.0202 12.7173ZM38.0202 8.07884C37.0756 8.07884 36.3995 7.46733 36.4094 6.58239C36.3995 5.70739 37.0558 5.12074 38.0202 5.12074C38.9698 5.12074 39.6211 5.70739 39.631 6.58239C39.6211 7.4723 38.9499 8.07884 38.0202 8.07884ZM48.8819 12.0909C48.8869 13.2741 49.6376 14.2834 51.0346 14.2834C52.4267 14.2834 53.1923 13.2741 53.1873 12.0909V11.554C53.1923 10.3608 52.4466 9.36151 51.0346 9.36151C49.6575 9.36151 48.8869 10.3707 48.8819 11.554V12.0909ZM43.7065 6.2642C43.7115 7.44744 44.4622 8.44673 45.8642 8.44673C47.2512 8.44673 48.0169 7.45739 48.0119 6.2642V5.72727C48.0169 4.53409 47.2711 3.5348 45.8642 3.5348C44.492 3.5348 43.7115 4.53409 43.7065 5.72727V6.2642ZM44.1539 14H45.4018L52.4018 3.81818H51.1539L44.1539 14ZM50.1795 11.554C50.1845 11.027 50.4082 10.495 51.0346 10.495C51.6909 10.495 51.8848 11.027 51.8798 11.554V12.0909C51.8848 12.6179 51.671 13.1399 51.0346 13.1399C50.3983 13.1399 50.1845 12.6129 50.1795 12.0909V11.554ZM45.014 5.72727C45.019 5.20526 45.2328 4.66832 45.8642 4.66832C46.5204 4.66832 46.7093 5.20028 46.7044 5.72727V6.2642C46.7093 6.79119 46.5005 7.31321 45.8642 7.31321C45.2278 7.31321 45.019 6.79119 45.014 6.2642V5.72727Z" fill="#E72D04"/>
</svg>
